#!OML:ASF H:\Pregnant\Project 1\Capture day 1\Session 1\femalepreg.ASF
:FULLY-SPECIFIED
:DEGREES
335
root 8.81149 15.6792 20.022 -152.759 -16.7381 -172.899
lowerback -5.10608 2.19762 -1.54284
upperback -5.52241 2.65401 0.840091
thorax -2.94762 1.25127 1.7979
lowerneck -24.9534 9.34131 4.30206
upperneck 3.72 11.3144 -6.21587
head 5.58867 4.86681 -1.34548
rclavicle -2.48481e-014 -2.46493e-014
rhumerus -21.9223 21.8236 -80.0363
rradius 110.116
rwrist -24.7349
rhand -23.3979 -27.38
rfingers 7.12502
rthumb 3.05884 -57.3378
lclavicle -2.48481e-014 -2.46493e-014
lhumerus -19.6425 -38.0772 92.4336
lradius 89.3794
lwrist 78.0615
lhand -27.0188 3.4019
lfingers 7.12502
lthumb -0.438264 33.3812
rfemur -37.2871 7.70315 12.0971
rtibia 18.5809
rfoot -1.65059 -24.0142
rtoes -22.5881
lfemur -44.0274 -7.97532 9.09803
ltibia 21.2929
lfoot -2.5051 16.8995
ltoes -33.4562
336
root 8.79253 15.683 20.0036 -153.117 -16.772 -172.975
lowerback -5.42681 2.22278 -1.43508
upperback -5.65621 2.66593 0.857163
thorax -2.90442 1.24493 1.76545
lowerneck -24.4406 9.5735 4.65444
upperneck 4.13375 11.6446 -6.42371
head 5.69921 5.0415 -1.42329
rclavicle 3.57812e-014 -2.78299e-015
rhumerus -22.4236 22.0782 -80.3587
rradius 110.623
rwrist -24.2301
rhand -23.463 -27.1751
rfingers 7.12502
rthumb 2.99593 -57.1338
lclavicle 3.57812e-014 -2.78299e-015
lhumerus -20.0933 -37.7594 92.4729
lradius 89.8339
lwrist 78.0106
lhand -26.7237 3.87616
lfingers 7.12502
lthumb -0.153244 33.8558
rfemur -36.543 7.95858 11.9383
rtibia 18.201
rfoot -1.62047 -24.3186
rtoes -22.2847
lfemur -43.5351 -8.19028 8.84253
ltibia 21.1805
lfoot -2.59884 16.8233
ltoes -33.3788
337
root 8.77376 15.6864 19.9854 -153.47 -16.806 -173.05
lowerback -5.74842 2.25142 -1.32824
upperback -5.77955 2.68221 0.878468
thorax -2.8505 1.24082 1.73831
lowerneck -23.9476 9.81627 4.98822
upperneck 4.5423 11.9941 -6.63482
head 5.81221 5.22299 -1.49637
rclavicle 7.61345e-014 -1.43125e-014
rhumerus -22.9005 22.3234 -80.6616
rradius 111.095
rwrist -23.7796
rhand -23.5017 -26.9355
rfingers 7.12502
rthumb 2.95859 -56.8947
lclavicle 7.61345e-014 -1.43125e-014
lhumerus -20.4977 -37.4262 92.4897
lradius 90.2619
lwrist 77.9694
lhand -26.3105 4.39342
lfingers 7.12502
lthumb 0.2459 34.373
rfemur -35.8088 8.22365 11.7802
rtibia 17.8236
rfoot -1.59722 -24.631
rtoes -21.9397
lfemur -43.0528 -8.39176 8.58444
ltibia 21.0763
lfoot -2.69271 16.7384
ltoes -33.3038
338
root 8.75491 15.6894 19.9675 -153.813 -16.8361 -173.122
lowerback -6.07498 2.28486 -1.21627
upperback -5.88928 2.70466 0.90045
thorax -2.7799 1.23969 1.70977
lowerneck -23.4917 10.0719 5.30999
upperneck 4.95162 12.3631 -6.85108
head 5.93294 5.41063 -1.56534
rclavicle -5.65542e-014 0
rhumerus -23.3451 22.5563 -80.9466
rradius 111.531
rwrist -23.3722
rhand -23.5238 -26.6512
rfingers 7.12502
rthumb 2.93724 -56.6107
lclavicle -5.65542e-014 0
lhumerus -20.8515 -37.0729 92.4715
lradius 90.6823
lwrist 77.9613
lhand -25.7979 4.99938
lfingers 7.12502
lthumb 0.740902 34.9778
rfemur -35.0912 8.48904 11.6272
rtibia 17.4509
rfoot -1.57896 -24.937
rtoes -21.5605
lfemur -42.5824 -8.58291 8.3281
ltibia 20.9794
lfoot -2.7895 16.6539
ltoes -33.222
339
root 8.73637 15.692 19.9499 -154.149 -16.8654 -173.196
lowerback -6.39888 2.32053 -1.10808
upperback -5.99514 2.72935 0.922369
thorax -2.70725 1.23973 1.6835
lowerneck -23.0322 10.3412 5.643
upperneck 5.34862 12.7506 -7.08777
head 6.05397 5.60476 -1.64
rclavicle -5.50634e-014 -4.92986e-014
rhumerus -23.7803 22.7776 -81.2273
rradius 111.937
rwrist -22.982
rhand -23.5167 -26.3324
rfingers 7.12502
rthumb 2.9441 -56.2918
lclavicle -5.50634e-014 -4.92986e-014
lhumerus -21.1768 -36.7054 92.4308
lradius 91.104
lwrist 77.9949
lhand -25.2539 5.70219
lfingers 7.12502
lthumb 1.26637 35.6782
rfemur -34.3869 8.76141 11.4745
rtibia 17.0857
rfoot -1.56593 -25.2475
rtoes -21.147
lfemur -42.1193 -8.75392 8.06318
ltibia 20.8859
lfoot -2.88657 16.5544
ltoes -33.1423
340
root 8.718 15.6944 19.9325 -154.478 -16.8931 -173.271
lowerback -6.71959 2.35984 -0.996208
upperback -6.10365 2.75722 0.93885
thorax -2.639 1.24086 1.64974
lowerneck -22.5515 10.6232 5.99498
upperneck 5.73219 13.154 -7.33964
head 6.17259 5.80574 -1.72068
rclavicle 5.83433e-014 5.68524e-014
rhumerus -24.2255 22.9884 -81.522
rradius 112.326
rwrist -22.6117
rhand -23.524 -26.0054
rfingers 7.12502
rthumb 2.93708 -55.9649
lclavicle 5.83433e-014 5.68524e-014
lhumerus -21.4959 -36.3305 92.3693
lradius 91.5416
lwrist 78.0755
lhand -24.7621 6.463
lfingers 7.12502
lthumb 1.74134 36.4356
rfemur -33.6969 9.03659 11.3238
rtibia 16.7263
rfoot -1.55773 -25.5566
rtoes -20.7023
lfemur -41.6641 -8.91225 7.7962
ltibia 20.7941
lfoot -2.98343 16.4499
ltoes -33.0628
341
root 8.6999 15.6966 19.9152 -154.8 -16.9205 -173.348
lowerback -7.03701 2.40011 -0.884964
upperback -6.20817 2.78564 0.949825
thorax -2.5684 1.24217 1.61083
lowerneck -22.0678 10.9216 6.37689
upperneck 6.10239 13.5759 -7.61691
head 6.29359 6.01335 -1.81111
rclavicle -2.68359e-015 4.6118e-014
rhumerus -24.6627 23.192 -81.8247
rradius 112.704
rwrist -22.2371
rhand -23.5526 -25.6768
rfingers 7.12502
rthumb 2.90944 -55.6367
lclavicle -2.68359e-015 4.6118e-014
lhumerus -21.7965 -35.9542 92.2797
lradius 91.988
lwrist 78.1816
lhand -24.3576 7.30278
lfingers 7.12502
lthumb 2.13201 37.2719
rfemur -33.0165 9.31521 11.173
rtibia 16.3719
rfoot -1.55809 -25.8675
rtoes -20.2279
lfemur -41.213 -9.06143 7.52516
ltibia 20.7022
lfoot -3.07925 16.3414
ltoes -32.9855
342
root 8.68207 15.6987 19.8978 -155.115 -16.9461 -173.427
lowerback -7.35138 2.44441 -0.769138
upperback -6.3185 2.81744 0.949172
thorax -2.50502 1.24443 1.55753
lowerneck -21.5387 11.2325 6.80531
upperneck 6.44354 14.0098 -7.92119
head 6.40684 6.22701 -1.91693
rclavicle 9.0944e-015 2.3059e-014
rhumerus -25.1194 23.3737 -82.1547
rradius 113.077
rwrist -21.8142
rhand -23.5749 -25.3523
rfingers 7.12502
rthumb 2.88789 -55.3125
lclavicle 9.0944e-015 2.3059e-014
lhumerus -22.1089 -35.591 92.1722
lradius 92.4408
lwrist 78.2899
lhand -24.0625 8.17828
lfingers 7.12502
lthumb 2.41696 38.1443
rfemur -32.3433 9.59907 11.0237
rtibia 16.018
rfoot -1.56843 -26.1774
rtoes -19.7291
lfemur -40.7653 -9.20248 7.25316
ltibia 20.6123
lfoot -3.17852 16.2328
ltoes -32.9125
343
root 8.6643 15.7007 19.8802 -155.423 -16.9687 -173.508
lowerback -7.67074 2.49409 -0.652666
upperback -6.42084 2.85594 0.942705
thorax -2.43061 1.24996 1.49881
lowerneck -20.9945 11.5516 7.24493
upperneck 6.74781 14.4556 -8.2458
head 6.51189 6.44518 -2.03009
rclavicle -2.10215e-014 -1.98785e-015
rhumerus -25.5628 23.5269 -82.4821
rradius 113.444
rwrist -21.3041
rhand -23.5626 -25.0652
rfingers 7.12502
rthumb 2.89974 -55.0252
lclavicle -2.10215e-014 -1.98785e-015
lhumerus -22.4054 -35.2484 92.0484
lradius 92.8886
lwrist 78.3579
lhand -23.9171 9.01573
lfingers 7.12502
lthumb 2.55741 38.9801
rfemur -31.6745 9.88014 10.8762
rtibia 15.6637
rfoot -1.59811 -26.4778
rtoes -19.1998
lfemur -40.32 -9.34168 6.98031
ltibia 20.5257
lfoot -3.2809 16.1309
ltoes -32.8419
344
root 8.64669 15.7024 19.8627 -155.726 -16.9838 -173.59
lowerback -7.98491 2.55019 -0.533586
upperback -6.52385 2.90173 0.928355
thorax -2.35958 1.25878 1.43097
lowerneck -20.3987 11.877 7.71515
upperneck 6.99962 14.9099 -8.60245
head 6.60063 6.6677 -2.15938
rclavicle -9.0944e-014 -6.75868e-014
rhumerus -26.0124 23.6555 -82.8168
rradius 113.806
rwrist -20.6913
rhand -23.5103 -24.8091
rfingers 7.12502
rthumb 2.95027 -54.7685
lclavicle -9.0944e-014 -6.75868e-014
lhumerus -22.7076 -34.927 91.918
lradius 93.3173
lwrist 78.3547
lhand -23.8767 9.8146
lfingers 7.12502
lthumb 2.59645 39.7785
rfemur -31.0126 10.1648 10.7288
rtibia 15.3089
rfoot -1.64866 -26.7668
rtoes -18.631
lfemur -39.8789 -9.4788 6.70912
ltibia 20.4466
lfoot -3.38654 16.0393
ltoes -32.7729
345
root 8.62946 15.7038 19.8453 -156.028 -16.9967 -173.675
lowerback -8.28639 2.60911 -0.418778
upperback -6.62679 2.95077 0.911201
thorax -2.29577 1.26931 1.36263
lowerneck -19.7554 12.2072 8.20154
upperneck 7.20253 15.3743 -8.98234
head 6.67349 6.89588 -2.29964
rclavicle 5.47155e-014 4.37326e-015
rhumerus -26.4677 23.7628 -83.1517
rradius 114.159
rwrist -19.9712
rhand -23.3993 -24.5897
rfingers 7.12502
rthumb 3.05749 -54.5476
lclavicle 5.47155e-014 4.37326e-015
lhumerus -23.0088 -34.6317 91.7861
lradius 93.7183
lwrist 78.2477
lhand -23.9367 10.5753
lfingers 7.12502
lthumb 2.53849 40.5399
rfemur -30.3546 10.4554 10.5805
rtibia 14.9593
rfoot -1.72281 -27.0476
rtoes -18.0153
lfemur -39.4417 -9.6079 6.43267
ltibia 20.3778
lfoot -3.49365 15.944
ltoes -32.7165
346
root 8.61234 15.7047 19.8285 -156.323 -17.0028 -173.762
lowerback -8.58318 2.67298 -0.302522
upperback -6.72324 3.0061 0.892239
thorax -2.22783 1.28309 1.29229
lowerneck -19.0927 12.543 8.696
upperneck 7.36592 15.8503 -9.38302
head 6.73757 7.12937 -2.4473
rclavicle -2.79292e-014 -1.59028e-014
rhumerus -26.9108 23.8512 -83.4742
rradius 114.495
rwrist -19.162
rhand -23.25 -24.3973
rfingers 7.12502
rthumb 3.2017 -54.353
lclavicle -2.79292e-014 -1.59028e-014
lhumerus -23.2929 -34.3661 91.6478
lradius 94.0892
lwrist 78.0206
lhand -24.0477 11.3082
lfingers 7.12502
lthumb 2.4313 41.2741
rfemur -29.7121 10.7394 10.4348
rtibia 14.6205
rfoot -1.82383 -27.2986
rtoes -17.3479
lfemur -39.0165 -9.73134 6.15661
ltibia 20.3217
lfoot -3.60104 15.8538
ltoes -32.6601
347
root 8.59567 15.705 19.8122 -156.615 -17.0056 -173.851
lowerback -8.86681 2.73884 -0.191142
upperback -6.81624 3.06419 0.873804
thorax -2.16393 1.29861 1.22527
lowerneck -18.4202 12.8837 9.20546
upperneck 7.50866 16.3371 -9.8039
head 6.80136 7.36768 -2.60222
rclavicle 5.16343e-014 -2.14687e-014
rhumerus -27.3472 23.9273 -83.7865
rradius 114.807
rwrist -18.2809
rhand -23.0548 -24.2097
rfingers 7.12502
rthumb 3.39017 -54.1625
lclavicle 5.16343e-014 -2.14687e-014
lhumerus -23.5696 -34.1284 91.5067
lradius 94.438
lwrist 77.6764
lhand -24.2053 12.0766
lfingers 7.12502
lthumb 2.27907 42.0441
rfemur -29.0845 11.0155 10.2946
rtibia 14.301
rfoot -1.95379 -27.5169
rtoes -16.6256
lfemur -38.6004 -9.83567 5.87336
ltibia 20.2786
lfoot -3.70729 15.7498
ltoes -32.6121
348
root 8.5794 15.7047 19.7966 -156.9 -17.0042 -173.939
lowerback -9.14056 2.80447 -0.080266
upperback -6.90105 3.1223 0.858199
thorax -2.09713 1.31458 1.16157
lowerneck -17.7807 13.2353 9.70572
upperneck 7.65729 16.8427 -10.2122
head 6.87612 7.61445 -2.74675
rclavicle 9.69075e-015 -2.60408e-014
rhumerus -27.7627 24.0071 -84.0906
rradius 115.081
rwrist -17.3659
rhand -22.8656 -23.9885
rfingers 7.12502
rthumb 3.57291 -53.9383
lclavicle 9.69075e-015 -2.60408e-014
lhumerus -23.8257 -33.9051 91.3518
lradius 94.7691
lwrist 77.2447
lhand -24.3417 12.7962
lfingers 7.12502
lthumb 2.14731 42.7651
rfemur -28.4807 11.2793 10.1615
rtibia 14.0051
rfoot -2.11412 -27.6939
rtoes -15.8471
lfemur -38.1991 -9.92745 5.5913
ltibia 20.2487
lfoot -3.81145 15.6425
ltoes -32.5741
349
root 8.56351 15.704 19.7814 -157.182 -17.002 -174.03
lowerback -9.40757 2.87143 0.0297404
upperback -6.97596 3.18285 0.840433
thorax -2.02362 1.33229 1.09658
lowerneck -17.1638 13.5865 10.2247
upperneck 7.8113 17.3489 -10.6264
head 6.96283 7.86086 -2.89339
rclavicle 2.72335e-014 4.96962e-015
rhumerus -28.1604 24.0839 -84.3868
rradius 115.315
rwrist -16.4272
rhand -22.6973 -23.6825
rfingers 7.12502
rthumb 3.73538 -53.6295
lclavicle 2.72335e-014 4.96962e-015
lhumerus -24.0629 -33.7055 91.1809
lradius 95.0929
lwrist 76.7637
lhand -24.461 13.488
lfingers 7.12502
lthumb 2.03215 43.4581
rfemur -27.8937 11.5175 10.0408
rtibia 13.7375
rfoot -2.31085 -27.8191
rtoes -15.0199
lfemur -37.8071 -10.0108 5.30816
ltibia 20.2322
lfoot -3.91566 15.5309
ltoes -32.5442
